<svg width="148.52" height="35" xmlns="http://www.w3.org/2000/svg">

 <g>
  <title>Layer 1</title>
  <rect id="svg_1" fill="#6B80AC" height="35" width="109.03" y="0" x="0" class="svg__rect"/>
  <rect id="svg_2" fill="#3B5998" height="35" width="41.49" y="0" x="107.03" class="svg__rect"/>
  <path id="svg_3" fill="#FFFFFF" d="m15.7,22l-1.48,0l0,-8.53l5.42,0l0,1.19l-3.94,0l0,2.54l3.43,0l0,1.18l-3.43,0l0,3.62zm8.88,0l-1.54,0l3.22,-8.53l1.33,0l3.23,8.53l-1.55,0l-0.7,-1.99l-3.3,0l-0.69,1.99zm2.34,-6.72l-1.24,3.54l2.48,0l-1.24,-3.54zm7.58,2.91l0,0l0,-0.8q0,-1.2 0.43,-2.12q0.43,-0.92 1.23,-1.42q0.8,-0.5 1.85,-0.5l0,0q1.41,0 2.27,0.77q0.86,0.77 1,2.17l0,0l-1.47,0q-0.11,-0.92 -0.54,-1.33q-0.43,-0.41 -1.26,-0.41l0,0q-0.97,0 -1.49,0.71q-0.52,0.7 -0.53,2.07l0,0l0,0.76q0,1.38 0.5,2.11q0.49,0.72 1.45,0.72l0,0q0.87,0 1.31,-0.39q0.44,-0.39 0.56,-1.31l0,0l1.47,0q-0.13,1.37 -1.01,2.13q-0.88,0.77 -2.33,0.77l0,0q-1.02,0 -1.8,-0.49q-0.78,-0.48 -1.2,-1.37q-0.42,-0.89 -0.44,-2.07zm16.67,3.81l-5.58,0l0,-8.53l5.54,0l0,1.19l-4.05,0l0,2.36l3.5,0l0,1.17l-3.5,0l0,2.63l4.09,0l0,1.18zm7.31,0l-3.11,0l0,-8.53l2.92,0q1.45,0 2.2,0.58q0.76,0.58 0.76,1.73l0,0q0,0.58 -0.32,1.05q-0.31,0.47 -0.92,0.73l0,0q0.69,0.19 1.07,0.7q0.38,0.52 0.38,1.25l0,0q0,1.2 -0.78,1.85q-0.77,0.64 -2.2,0.64l0,0zm-1.63,-3.85l0,2.67l1.65,0q0.69,0 1.09,-0.35q0.39,-0.34 0.39,-0.96l0,0q0,-1.33 -1.36,-1.36l0,0l-1.77,0zm0,-3.49l0,2.4l1.45,0q0.69,0 1.08,-0.31q0.39,-0.32 0.39,-0.89l0,0q0,-0.63 -0.36,-0.91q-0.36,-0.29 -1.12,-0.29l0,0l-1.44,0zm8.81,3.34l0,0l0,-0.48q0,-1.24 0.44,-2.2q0.44,-0.95 1.25,-1.46q0.8,-0.51 1.85,-0.51q1.04,0 1.84,0.5q0.81,0.5 1.25,1.44q0.44,0.94 0.44,2.19l0,0l0,0.48q0,1.25 -0.43,2.2q-0.43,0.94 -1.24,1.45q-0.8,0.51 -1.85,0.51l0,0q-1.04,0 -1.85,-0.51q-0.81,-0.51 -1.26,-1.44q-0.44,-0.94 -0.44,-2.17zm1.48,-0.54l0,0.5q0,1.4 0.55,2.17q0.54,0.77 1.52,0.77l0,0q0.98,0 1.51,-0.75q0.53,-0.75 0.53,-2.19l0,0l0,-0.45q0,-1.42 -0.53,-2.17q-0.54,-0.76 -1.52,-0.76l0,0q-0.97,0 -1.51,0.75q-0.54,0.76 -0.55,2.13l0,0zm9.79,0.54l0,0l0,-0.48q0,-1.24 0.44,-2.2q0.44,-0.95 1.25,-1.46q0.81,-0.51 1.85,-0.51q1.04,0 1.85,0.5q0.8,0.5 1.24,1.44q0.44,0.94 0.45,2.19l0,0l0,0.48q0,1.25 -0.44,2.2q-0.43,0.94 -1.23,1.45q-0.81,0.51 -1.86,0.51l0,0q-1.04,0 -1.85,-0.51q-0.81,-0.51 -1.25,-1.44q-0.44,-0.94 -0.45,-2.17zm1.48,-0.54l0,0.5q0,1.4 0.55,2.17q0.55,0.77 1.52,0.77l0,0q0.99,0 1.52,-0.75q0.53,-0.75 0.53,-2.19l0,0l0,-0.45q0,-1.42 -0.54,-2.17q-0.54,-0.76 -1.52,-0.76l0,0q-0.96,0 -1.5,0.75q-0.55,0.76 -0.56,2.13l0,0zm11.55,4.54l-1.49,0l0,-8.53l1.49,0l0,4l0.82,-1.01l2.49,-2.99l1.79,0l-3.17,3.78l3.36,4.75l-1.76,0l-2.57,-3.69l-0.96,1.03l0,2.66z" class="svg__text"/>
  <g stroke="null">
   <g stroke="null">
    <g stroke="null" xmlns="http://www.w3.org/2000/svg">
     <g stroke="null">
      <path stroke="null" data-original="#000000" fill="#ffffff" d="m138.00125,5.41261l-19.00438,0c-1.60393,0 -2.90883,1.3049 -2.90883,2.90883l0,19.00438c0,1.60393 1.3049,2.90883 2.90883,2.90883l19.00438,0c1.60393,0 2.90883,-1.3049 2.90883,-2.90883l0,-19.00438c0,-1.60393 -1.3049,-2.90883 -2.90883,-2.90883zm0.96961,21.91322c0,0.53464 -0.43497,0.96961 -0.96961,0.96961l-5.52679,0l0,-7.90233l2.99561,0l0.49499,-3.0058l-3.4906,0l0,-2.08466c0,-0.82296 0.63146,-1.45442 1.45442,-1.45442l1.9877,0l0,-3.0058l-1.9877,0c-2.46878,0 -4.45915,1.99982 -4.45915,4.46865l0,2.07623l-2.9099,0l0,3.0058l2.9099,0l0,7.90233l-10.47287,0c-0.53464,0 -0.96961,-0.43497 -0.96961,-0.96961l0,-19.00438c0,-0.53464 0.43497,-0.96961 0.96961,-0.96961l19.00438,0c0.53464,0 0.96961,0.43497 0.96961,0.96961l0,19.00438z"/>
     </g>
    </g>
   </g>
  </g>
 </g>
</svg>