<svg width="157.40999999999997" height="35" xmlns="http://www.w3.org/2000/svg">

 <g>
  <title>Layer 1</title>
  <rect id="svg_1" fill="#E983B1" height="35" width="117.92" y="0" x="0" class="svg__rect"/>
  <rect id="svg_2" fill="#DD2A7B" height="35" width="41.49" y="0" x="115.92" class="svg__rect"/>
  <path id="svg_3" fill="#FFFFFF" d="m15.78,22l-1.47,0l0,-8.53l1.47,0l0,8.53zm6.29,0l-1.48,0l0,-8.53l1.48,0l3.82,6.07l0,-6.07l1.47,0l0,8.53l-1.48,0l-3.81,-6.05l0,6.05zm9.6,-2.58l0,0l1.48,0q0,0.73 0.48,1.13q0.48,0.4 1.38,0.4l0,0q0.77,0 1.16,-0.32q0.39,-0.31 0.39,-0.83l0,0q0,-0.56 -0.4,-0.86q-0.39,-0.31 -1.42,-0.62q-1.03,-0.31 -1.64,-0.69l0,0q-1.17,-0.73 -1.17,-1.91l0,0q0,-1.03 0.84,-1.7q0.84,-0.67 2.18,-0.67l0,0q0.89,0 1.59,0.33q0.7,0.33 1.1,0.93q0.4,0.61 0.4,1.35l0,0l-1.48,0q0,-0.67 -0.42,-1.05q-0.42,-0.37 -1.2,-0.37l0,0q-0.72,0 -1.13,0.31q-0.4,0.31 -0.4,0.86l0,0q0,0.47 0.44,0.79q0.43,0.31 1.43,0.6q0.99,0.3 1.6,0.68q0.6,0.38 0.88,0.87q0.28,0.48 0.28,1.14l0,0q0,1.07 -0.82,1.7q-0.81,0.63 -2.21,0.63l0,0q-0.93,0 -1.71,-0.35q-0.77,-0.34 -1.2,-0.94q-0.43,-0.61 -0.43,-1.41zm12.34,-4.76l-2.63,0l0,-1.19l6.76,0l0,1.19l-2.66,0l0,7.34l-1.47,0l0,-7.34zm8.67,7.34l-1.54,0l3.22,-8.53l1.33,0l3.23,8.53l-1.55,0l-0.7,-1.99l-3.3,0l-0.69,1.99zm2.34,-6.72l-1.23,3.54l2.47,0l-1.24,-3.54zm7.61,2.85l0,0l0,-0.67q0,-1.93 0.92,-3.02q0.93,-1.09 2.59,-1.09l0,0q1.42,0 2.26,0.7q0.84,0.71 1.01,2.03l0,0l-1.46,0q-0.24,-1.54 -1.78,-1.54l0,0q-1,0 -1.52,0.72q-0.52,0.72 -0.53,2.11l0,0l0,0.65q0,1.38 0.58,2.15q0.58,0.76 1.62,0.76l0,0q1.14,0 1.62,-0.51l0,0l0,-1.67l-1.76,0l0,-1.13l3.23,0l0,3.27q-0.46,0.61 -1.28,0.92q-0.82,0.31 -1.86,0.31l0,0q-1.08,0 -1.9,-0.49q-0.83,-0.49 -1.28,-1.39q-0.45,-0.91 -0.46,-2.11zm12.88,3.87l-1.48,0l0,-8.53l3,0q1.48,0 2.28,0.66q0.8,0.66 0.8,1.92l0,0q0,0.85 -0.41,1.43q-0.41,0.58 -1.15,0.89l0,0l1.91,3.55l0,0.08l-1.58,0l-1.72,-3.29l-1.65,0l0,3.29zm0,-7.34l0,2.86l1.53,0q0.75,0 1.17,-0.37q0.42,-0.38 0.42,-1.04l0,0q0,-0.68 -0.39,-1.06q-0.39,-0.37 -1.16,-0.39l0,0l-1.57,0zm9.78,7.34l-1.55,0l3.23,-8.53l1.33,0l3.23,8.53l-1.55,0l-0.7,-1.99l-3.3,0l-0.69,1.99zm2.34,-6.72l-1.24,3.54l2.48,0l-1.24,-3.54zm9.33,6.72l-1.48,0l0,-8.53l1.92,0l2.46,6.54l2.46,-6.54l1.91,0l0,8.53l-1.47,0l0,-2.81l0.14,-3.76l-2.51,6.57l-1.07,0l-2.51,-6.57l0.15,3.76l0,2.81z" class="svg__text"/>
  <g stroke="null">
   <g stroke="null">
    <path stroke="null" data-original="#000000" fill="#ffffff" d="m137.33619,30.54784c-0.08401,0 -0.16803,0 -0.25262,-0.00039c-1.98882,0.00484 -3.82646,-0.04568 -5.61357,-0.15448c-1.63845,-0.09969 -3.13403,-0.66591 -4.32531,-1.63728c-1.14947,-0.93731 -1.93443,-2.20466 -2.333,-3.76645c-0.34689,-1.35969 -0.36528,-2.69441 -0.3829,-3.98539c-0.01278,-0.92627 -0.02594,-2.02386 -0.02865,-3.14003c0.00271,-1.12082 0.01587,-2.21841 0.02865,-3.14468c0.01762,-1.29078 0.03601,-2.6255 0.3829,-3.98539c0.39858,-1.56179 1.18354,-2.82914 2.333,-3.76645c1.19128,-0.97137 2.68686,-1.53759 4.3255,-1.63728c1.78711,-0.1086 3.62514,-0.15931 5.61822,-0.15448c1.9894,-0.00426 3.82646,0.04588 5.61357,0.15448c1.63845,0.09969 3.13403,0.66591 4.32531,1.63728c1.14966,0.93731 1.93443,2.20466 2.333,3.76645c0.34689,1.35969 0.36528,2.69461 0.3829,3.98539c0.01278,0.92627 0.02613,2.02386 0.02865,3.14003l0,0.00465c-0.00252,1.11617 -0.01587,2.21376 -0.02865,3.14003c-0.01762,1.29078 -0.03581,2.6255 -0.3829,3.98539c-0.39858,1.56179 -1.18334,2.82914 -2.333,3.76645c-1.19128,0.97137 -2.68686,1.53759 -4.32531,1.63728c-1.71142,0.10414 -3.4695,0.15486 -5.36579,0.15486zm-0.25262,-1.98263c1.95649,0.00465 3.7529,-0.04472 5.49801,-0.1508c1.2389,-0.0753 2.31306,-0.47736 3.19307,-1.19496c0.81342,-0.66339 1.37363,-1.57863 1.66497,-2.72035c0.28882,-1.13185 0.30547,-2.34714 0.32153,-3.52235c0.01258,-0.92008 0.02575,-2.00992 0.02846,-3.11525c-0.00271,-1.10552 -0.01587,-2.19518 -0.02846,-3.11525c-0.01607,-1.17521 -0.03271,-2.3905 -0.32153,-3.52254c-0.29134,-1.14172 -0.85155,-2.05696 -1.66497,-2.72035c-0.88001,-0.7174 -1.95417,-1.11946 -3.19307,-1.19476c-1.74511,-0.10627 -3.54151,-0.15525 -5.49336,-0.15099c-1.95611,-0.00465 -3.75271,0.04472 -5.49781,0.15099c-1.2389,0.0753 -2.31306,0.47736 -3.19307,1.19476c-0.81342,0.66339 -1.37363,1.57863 -1.66497,2.72035c-0.28882,1.13204 -0.30547,2.34713 -0.32153,3.52254c-0.01258,0.92085 -0.02575,2.01128 -0.02846,3.11758c0.00271,1.10146 0.01587,2.19208 0.02846,3.11293c0.01607,1.17521 0.03271,2.3905 0.32153,3.52235c0.29134,1.14172 0.85155,2.05696 1.66497,2.72035c0.88001,0.7174 1.95417,1.11946 3.19307,1.19476c1.74511,0.10627 3.54209,0.15583 5.49317,0.15099zm-0.04723,-4.50921c-3.41549,0 -6.1945,-2.77881 -6.1945,-6.1945s2.77901,-6.1945 6.1945,-6.1945c3.41569,0 6.1945,2.77881 6.1945,6.1945s-2.77881,6.1945 -6.1945,6.1945zm0,-10.40676c-2.32255,0 -4.21226,1.88971 -4.21226,4.21226s1.88971,4.21226 4.21226,4.21226c2.32274,0 4.21226,-1.88971 4.21226,-4.21226s-1.88952,-4.21226 -4.21226,-4.21226zm6.88828,-3.96448c-0.82096,0 -1.48668,0.66552 -1.48668,1.48668s0.66572,1.48668 1.48668,1.48668c0.82116,0 1.48668,-0.66552 1.48668,-1.48668s-0.66552,-1.48668 -1.48668,-1.48668zm0,0" xmlns="http://www.w3.org/2000/svg"/>
   </g>
  </g>
 </g>
</svg>