<svg width="125.10000000000001" height="35" xmlns="http://www.w3.org/2000/svg">

 <g>
  <title>Layer 1</title>
  <rect id="svg_1" fill="#9146FF" height="35" width="85.61" y="0" x="0" class="svg__rect"/>
  <rect id="svg_2" fill="#6441A5" height="35" width="41.49" y="0" x="83.61" class="svg__rect"/>
  <path id="svg_3" fill="#FFFFFF" d="m16.25,14.66l-2.64,0l0,-1.19l6.77,0l0,1.19l-2.66,0l0,7.34l-1.47,0l0,-7.34zm9.27,7.34l-1.97,-8.53l1.47,0l1.33,6.41l1.63,-6.41l1.24,0l1.61,6.42l1.31,-6.42l1.47,0l-1.97,8.53l-1.41,0l-1.63,-6.23l-1.66,6.23l-1.42,0zm13.73,0l-1.48,0l0,-8.53l1.48,0l0,8.53zm6.49,-7.34l-2.64,0l0,-1.19l6.77,0l0,1.19l-2.66,0l0,7.34l-1.47,0l0,-7.34zm7.62,3.53l0,0l0,-0.8q0,-1.2 0.43,-2.12q0.42,-0.92 1.22,-1.42q0.8,-0.5 1.85,-0.5l0,0q1.41,0 2.28,0.77q0.86,0.77 1,2.17l0,0l-1.48,0q-0.1,-0.92 -0.54,-1.33q-0.43,-0.41 -1.26,-0.41l0,0q-0.97,0 -1.48,0.71q-0.52,0.7 -0.53,2.07l0,0l0,0.76q0,1.38 0.49,2.11q0.5,0.72 1.45,0.72l0,0q0.87,0 1.31,-0.39q0.44,-0.39 0.56,-1.31l0,0l1.48,0q-0.13,1.37 -1.01,2.13q-0.88,0.77 -2.34,0.77l0,0q-1.02,0 -1.79,-0.49q-0.78,-0.48 -1.2,-1.37q-0.42,-0.89 -0.44,-2.07zm12.57,3.81l-1.48,0l0,-8.53l1.48,0l0,3.55l3.82,0l0,-3.55l1.47,0l0,8.53l-1.47,0l0,-3.79l-3.82,0l0,3.79z" class="svg__text"/>
  <g stroke="null">
   <g stroke="null">
    <g stroke="null" xmlns="http://www.w3.org/2000/svg">
     <g stroke="null">
      <path stroke="null" data-original="#000000" fill="#ffffff" d="m97.03601,24.13459l4.88735,0l0,2.44368c0,0.19745 0.11925,0.37633 0.30155,0.45159c0.0606,0.02541 0.12414,0.03714 0.18719,0.03714c0.12707,0 0.25219,-0.04985 0.34554,-0.1432l2.78921,-2.78921l5.41812,0c0.12951,0 0.25414,-0.05132 0.34554,-0.1432l3.17678,-3.17678c0.09188,-0.09139 0.1432,-0.21553 0.1432,-0.34554l0,-11.48528c0,-0.27027 -0.21895,-0.48874 -0.48874,-0.48874l-17.10574,0c-0.26978,0 -0.48874,0.21846 -0.48874,0.48874l0,14.66206c0,0.27027 0.21895,0.48874 0.48874,0.48874zm0.48874,-14.66206l16.12827,0l0,10.79421l-2.89038,2.89038l-5.41812,0c-0.12951,0 -0.25414,0.05132 -0.34554,0.1432l-2.09814,2.09814l0,-1.75261c0,-0.27027 -0.21895,-0.48874 -0.48874,-0.48874l-4.88735,0l0,-13.68459z"/>
      <path stroke="null" data-original="#000000" fill="#ffffff" d="m117.07416,6.05138l-22.23746,0c-0.17399,0 -0.33478,0.09237 -0.42227,0.24241l-1.71057,2.93241c-0.0435,0.07478 -0.06647,0.15982 -0.06647,0.24632l0,18.08321c0,0.27027 0.21895,0.48874 0.48874,0.48874l5.37609,0l0,2.93241c0,0.27027 0.21895,0.48874 0.48874,0.48874l3.42115,0c0.12072,0 0.23704,-0.04496 0.32696,-0.1256l3.66209,-3.29554l4.56381,0c0.12267,0 0.24095,-0.04643 0.33087,-0.12903l6.10919,-5.62046c0.10068,-0.09237 0.15786,-0.22335 0.15786,-0.35971l0,-15.39517c0,-0.27027 -0.21895,-0.48874 -0.48874,-0.48874zm-0.48874,15.66983l-5.81106,5.34579l-4.56088,0c-0.12072,0 -0.23704,0.04496 -0.32696,0.1256l-3.66209,3.29554l-2.74474,0l0,-2.93241c0,-0.27027 -0.21895,-0.48874 -0.48874,-0.48874l-5.37609,0l0,-17.46203l1.50237,-2.57612l21.46819,0l0,14.69236z"/>
      <path stroke="null" data-original="#000000" fill="#ffffff" d="m102.90083,19.73597l1.95494,0c0.26978,0 0.48874,-0.21846 0.48874,-0.48874l0,-6.35356c0,-0.27027 -0.21895,-0.48874 -0.48874,-0.48874l-1.95494,0c-0.26978,0 -0.48874,0.21846 -0.48874,0.48874l0,6.35356c0,0.27027 0.21895,0.48874 0.48874,0.48874zm0.48874,-6.35356l0.97747,0l0,5.37609l-0.97747,0l0,-5.37609z"/>
      <path stroke="null" data-original="#000000" fill="#ffffff" d="m107.78819,19.73597l1.95494,0c0.26978,0 0.48874,-0.21846 0.48874,-0.48874l0,-6.35356c0,-0.27027 -0.21895,-0.48874 -0.48874,-0.48874l-1.95494,0c-0.26978,0 -0.48874,0.21846 -0.48874,0.48874l0,6.35356c0,0.27027 0.21895,0.48874 0.48874,0.48874zm0.48874,-6.35356l0.97747,0l0,5.37609l-0.97747,0l0,-5.37609z"/>
     </g>
    </g>
   </g>
  </g>
 </g>
</svg>